{"title":"The Slender Man 2013 WEBRip x264 AC3-OFFLiNE","uid":8254422,"size":753857635,"categoryP":"video","categoryS":"movies","magnet":"?xt=urn:btih:da52b221429b001a875be46f24bfc03ac35dcd8d&amp;dn=The+Slender+Man+2013+WEBRip+x264+AC3-OFFLiNE&amp;tr=udp%3A%2F%2Ftracker.openbittorrent.com%3A80&amp;tr=udp%3A%2F%2Fopen.demonii.com%3A1337&amp;tr=udp%3A%2F%2Ftracker.coppersurfer.tk%3A6969&amp;tr=udp%3A%2F%2Fexodus.desync.com%3A6969","seeders":0,"leechers":1,"uploader":".BONE.","files":3,"time":1363228247,"description":"Source: 720p YOUTUBE\n &lt;a href=&quot;\nhttp://www.officialslendermanmovie.com/&quot; rel=&quot;nofollow&quot; target=&quot;_NEW&quot;&gt;\nhttp://www.officialslendermanmovie.com/&lt;/a&gt;\n\n&quot;The Slender Man&quot; is a full-length movie based on the internet-born urban legend\n\nGeneral\nComplete name : The Slender Man 2013 WEBRip x264 AC3-OFFLiNE.mkv\nFormat : Matroska\nFormat version : Version 4 / Version 2\nFile size : 699 MiB\nDuration : 1h 18mn\nOverall bit rate mode : Variable\nOverall bit rate : 1 252 Kbps\nEncoded date : UTC 2013-03-13 23:24:56\nWriting application : mkvmerge v6.1.0 ('Old Devil') built on Mar 2 2013 14:32:37\nWriting library : libebml v1.3.0 + libmatroska v1.4.0\n\nVideo\nID : 1\nFormat : AVC\nFormat/Info : Advanced Video Codec\nFormat profile : &lt;a class=&quot;__cf_email__&quot; href=&quot;/cdn-cgi/l/email-protection&quot; data-cfemail=&quot;baf2d3ddd2faf68e948b&quot;&gt;[email&amp;#160;protected]&lt;/a&gt;&lt;script cf-hash='f9e31' type=&quot;text/javascript&quot;&gt;\n/* &lt;![CDATA[ */!function(){try{var t=&quot;currentScript&quot;in document?document.currentScript:function(){for(var t=document.getElementsByTagName(&quot;script&quot;),e=t.length;e--;)if(t[e].getAttribute(&quot;cf-hash&quot;))return t[e]}();if(t&amp;&amp;t.previousSibling){var e,r,n,i,c=t.previousSibling,a=c.getAttribute(&quot;data-cfemail&quot;);if(a){for(e=&quot;&quot;,r=parseInt(a.substr(0,2),16),n=2;a.length-n;n+=2)i=parseInt(a.substr(n,2),16)^r,e+=String.fromCharCode(i);e=document.createTextNode(e),c.parentNode.replaceChild(e,c)}}}catch(u){}}();/* ]]&gt; */&lt;/script&gt;\nFormat settings, CABAC : Yes\nFormat settings, ReFrames : 3 frames\nFormat settings, GOP : M=4, N=23\nCodec ID : V_MPEG4/ISO/AVC\nDuration : 1h 18mn\nBit rate mode : Variable\nBit rate : 1 122 Kbps\nMaximum bit rate : 40.0 Mbps\nWidth : 720 pixels\nHeight : 400 pixels\nDisplay aspect ratio : 16:9\nFrame rate mode : Constant\nFrame rate : 23.976 fps\nColor space : YUV\nChroma subsampling : 4:2:0\nBit depth : 8 bits\nScan type : Progressive\nBits/(Pixel*Frame) : 0.162\nStream size : 614 MiB (88%)\nWriting library : x264 core 130 r2273 b3065e6\n\nAudio\nID : 2\nFormat : AC-3\nFormat/Info : Audio Coding 3\nMode extension : CM (complete main)\nFormat settings, Endianness : Big\nCodec ID : A_AC3\nDuration : 1h 18mn\nBit rate mode : Constant\nBit rate : 128 Kbps\nChannel(s) : 2 channels\nChannel positions : Front: L R\nSampling rate : 44.1 KHz\nBit depth : 16 bits\nCompression mode : Lossy\nStream size : 71.5 MiB (10%)\nLanguage : English\nDefault : Yes\nForced : No","torrent":{"xt":"urn:btih:da52b221429b001a875be46f24bfc03ac35dcd8d","amp;dn":"The+Slender+Man+2013+WEBRip+x264+AC3-OFFLiNE","amp;tr":["udp%3A%2F%2Ftracker.openbittorrent.com%3A80","udp%3A%2F%2Fopen.demonii.com%3A1337","udp%3A%2F%2Ftracker.coppersurfer.tk%3A6969","udp%3A%2F%2Fexodus.desync.com%3A6969"],"infoHash":"da52b221429b001a875be46f24bfc03ac35dcd8d","infoHashBuffer":{"type":"Buffer","data":[218,82,178,33,66,155,0,26,135,91,228,111,36,191,192,58,195,93,205,141]},"announce":[],"urlList":[]}}